<svg width="35" height="35" viewBox="0 0 35 35" fill="none" xmlns="http://www.w3.org/2000/svg">
<path d="M17.5 17.5C21.5271 17.5 24.7916 14.2354 24.7916 10.2083C24.7916 6.18125 21.5271 2.91666 17.5 2.91666C13.4729 2.91666 10.2083 6.18125 10.2083 10.2083C10.2083 14.2354 13.4729 17.5 17.5 17.5Z" stroke="#FCFCFC" stroke-width="2"/>
<path d="M24.7917 20.4167H25.305C26.3711 20.417 27.4005 20.8066 28.1997 21.5123C28.9988 22.218 29.5128 23.1912 29.645 24.2492L30.2152 28.805C30.2665 29.2154 30.2299 29.632 30.1079 30.0272C29.9858 30.4224 29.7811 30.7872 29.5074 31.0972C29.2336 31.4072 28.897 31.6555 28.52 31.8255C28.1429 31.9955 27.734 32.0834 27.3204 32.0833H7.67957C7.26596 32.0834 6.85706 31.9955 6.48001 31.8255C6.10296 31.6555 5.76638 31.4072 5.49262 31.0972C5.21885 30.7872 5.01416 30.4224 4.89212 30.0272C4.77008 29.632 4.73349 29.2154 4.78478 28.805L5.35353 24.2492C5.48579 23.1907 6.00018 22.2171 6.79995 21.5113C7.59972 20.8055 8.62979 20.4162 9.69645 20.4167H10.2083" stroke="#FCFCFC" stroke-width="2" stroke-linecap="round" stroke-linejoin="round"/>
</svg>
