<svg width="80" height="80" viewBox="0 0 80 80" fill="none" xmlns="http://www.w3.org/2000/svg">
<path d="M12.3033 20.9733C16.98 15.9033 24.0567 13.3333 33.3333 13.3333H36.6667V22.73L33.9867 23.2667C29.42 24.18 26.2433 25.9767 24.5433 28.6133C23.6563 30.0338 23.1532 31.6602 23.0833 33.3333H33.3333C34.2174 33.3333 35.0652 33.6845 35.6903 34.3097C36.3155 34.9348 36.6667 35.7826 36.6667 36.6667V60C36.6667 63.6767 33.6767 66.6667 30 66.6667H9.99998C9.11593 66.6667 8.26808 66.3155 7.64296 65.6904C7.01784 65.0652 6.66665 64.2174 6.66665 63.3333V46.6667L6.67665 36.9367C6.64665 36.5667 6.01332 27.8 12.3033 20.9733ZM66.6667 66.6667H46.6667C45.7826 66.6667 44.9348 66.3155 44.3096 65.6904C43.6845 65.0652 43.3333 64.2174 43.3333 63.3333V46.6667L43.3433 36.9367C43.3133 36.5667 42.68 27.8 48.97 20.9733C53.6467 15.9033 60.7233 13.3333 70 13.3333H73.3333V22.73L70.6533 23.2667C66.0867 24.18 62.91 25.9767 61.21 28.6133C60.323 30.0338 59.8199 31.6602 59.75 33.3333H70C70.884 33.3333 71.7319 33.6845 72.357 34.3097C72.9821 34.9348 73.3333 35.7826 73.3333 36.6667V60C73.3333 63.6767 70.3433 66.6667 66.6667 66.6667Z" fill="#D9BFA0"/>
</svg>
