<svg width="50" height="50" viewBox="0 0 50 50" fill="none" xmlns="http://www.w3.org/2000/svg">
<path d="M10 10V40C10 41.3261 10.5268 42.5979 11.4645 43.5355C12.4021 44.4732 13.6739 45 15 45H38.75C39.0815 45 39.3995 44.8683 39.6339 44.6339C39.8683 44.3995 40 44.0815 40 43.75C40 43.4185 39.8683 43.1005 39.6339 42.8661C39.3995 42.6317 39.0815 42.5 38.75 42.5H15C14.337 42.5 13.7011 42.2366 13.2322 41.7678C12.7634 41.2989 12.5 40.663 12.5 40H37.5C38.163 40 38.7989 39.7366 39.2678 39.2678C39.7366 38.7989 40 38.163 40 37.5V10C40 8.67392 39.4732 7.40215 38.5355 6.46447C37.5979 5.52678 36.3261 5 35 5H15C13.6739 5 12.4021 5.52678 11.4645 6.46447C10.5268 7.40215 10 8.67392 10 10ZM35 7.5C35.663 7.5 36.2989 7.76339 36.7678 8.23223C37.2366 8.70107 37.5 9.33696 37.5 10V37.5H12.5V10C12.5 9.33696 12.7634 8.70107 13.2322 8.23223C13.7011 7.76339 14.337 7.5 15 7.5H35ZM28.965 24.6975C29.8191 23.4054 30.163 21.8422 29.93 20.311C29.697 18.7797 28.9037 17.3895 27.704 16.4099C26.5043 15.4303 24.9836 14.9311 23.4367 15.009C21.8898 15.0869 20.4269 15.7365 19.3317 16.8317C18.2365 17.9269 17.5869 19.3898 17.509 20.9367C17.4311 22.4836 17.9303 24.0043 18.9099 25.204C19.8895 26.4037 21.2797 27.197 22.811 27.43C24.3422 27.663 25.9054 27.3191 27.1975 26.465L30.365 29.635C30.4812 29.7512 30.6192 29.8434 30.771 29.9063C30.9229 29.9692 31.0856 30.0016 31.25 30.0016C31.4144 30.0016 31.5771 29.9692 31.729 29.9063C31.8808 29.8434 32.0188 29.7512 32.135 29.635C32.2512 29.5188 32.3434 29.3808 32.4063 29.229C32.4692 29.0771 32.5016 28.9144 32.5016 28.75C32.5016 28.5856 32.4692 28.4229 32.4063 28.271C32.3434 28.1192 32.2512 27.9812 32.135 27.865L28.965 24.7V24.6975ZM20 21.25C20 20.2554 20.3951 19.3016 21.0983 18.5983C21.8016 17.8951 22.7554 17.5 23.75 17.5C24.7446 17.5 25.6984 17.8951 26.4017 18.5983C27.1049 19.3016 27.5 20.2554 27.5 21.25C27.5 22.2446 27.1049 23.1984 26.4017 23.9017C25.6984 24.6049 24.7446 25 23.75 25C22.7554 25 21.8016 24.6049 21.0983 23.9017C20.3951 23.1984 20 22.2446 20 21.25Z" fill="#8C1818"/>
</svg>
