<svg width="30" height="30" viewBox="0 0 30 30" fill="none" xmlns="http://www.w3.org/2000/svg">
<path d="M29.3825 2.7369C28.3388 3.1994 27.2175 3.5119 26.0388 3.65315C27.255 2.92539 28.1649 1.77998 28.5988 0.430648C27.4561 1.10938 26.2054 1.58714 24.9013 1.84315C24.0242 0.906729 22.8626 0.286056 21.5967 0.0774905C20.3307 -0.131075 19.0314 0.0841374 17.9003 0.689714C16.7692 1.29529 15.8697 2.25735 15.3414 3.42653C14.8132 4.5957 14.6857 5.90658 14.9788 7.15565C12.6634 7.03939 10.3983 6.43758 8.33053 5.38928C6.26278 4.34097 4.43855 2.8696 2.97625 1.07065C2.47625 1.93315 2.18875 2.93315 2.18875 3.99815C2.18819 4.95689 2.42429 5.90095 2.8761 6.74656C3.32791 7.59218 3.98145 8.3132 4.77875 8.84565C3.8541 8.81623 2.94984 8.56638 2.14125 8.1169V8.1919C2.14116 9.53657 2.60629 10.8399 3.45773 11.8806C4.30917 12.9214 5.49446 13.6356 6.8125 13.9019C5.95473 14.134 5.05542 14.1682 4.1825 14.0019C4.55437 15.1589 5.27874 16.1707 6.25421 16.8956C7.22967 17.6204 8.4074 18.0221 9.6225 18.0444C7.55979 19.6637 5.01236 20.542 2.39 20.5381C1.92548 20.5383 1.46135 20.5111 1 20.4569C3.66185 22.1684 6.76043 23.0767 9.925 23.0731C20.6375 23.0731 26.4938 14.2006 26.4938 6.50565C26.4938 6.25565 26.4875 6.00315 26.4763 5.75315C27.6154 4.92937 28.5986 3.90927 29.38 2.74065L29.3825 2.7369Z" fill="#F8F8F8"/>
</svg>
